<svg xmlns="http://www.w3.org/2000/svg" fill="none" viewBox="0 0 400 400">
  
  
  
  
  
  
  
  
  
  
  
  
  
  
  
  
  
  
  
  
  
  
  
  
  
  
  
  
  
  
  
  
<g transform="matrix(16.666666666666668,0,0,16.666666666666668,0,0)"><path fill="#111111" d="M4.67689 13.058C4.66957 13.046 4.01689 11.871 3.55573 11.0799C3.54514 11.0529 3.52438 11.031 3.4979 11.0191C3.47141 11.0071 3.4413 11.006 3.41401 11.016C2.55661 11.1758 1.81885 11.31 0.707886 11.525C1.05205 12.3423 0.767886 11.7341 1.63573 13.5997C1.64857 13.632 1.66141 13.6577 1.70653 13.6448C2.03521 13.5804 2.36389 13.5299 2.69233 13.4648C3.23389 13.356 4.55437 13.0902 4.67689 13.058Z"></path><path fill="#111111" d="M9.10318 8.07757C9.0775 8.07757 9.03861 8.03245 9.03237 8.00017C8.99241 7.79425 8.27746 3.90265 8.25922 3.83797C8.23186 3.74197 8.27194 3.68197 8.37514 3.66997C8.73514 3.62809 13.9161 3.06997 14.2127 3.03853C14.277 3.03181 14.3167 3.04465 14.3351 3.11581C14.3897 3.32773 15.2619 6.99481 15.3337 7.31029C15.3385 7.32913 15.339 7.34881 15.3351 7.36786C15.3312 7.38692 15.3231 7.40485 15.3113 7.42033C15.2996 7.4358 15.2845 7.44843 15.2671 7.45726C15.2498 7.46609 15.2307 7.4709 15.2113 7.47133C14.9535 7.49113 9.19342 8.08393 9.10318 8.07757Z"></path><path fill="#111111" d="M4.78631 14.1404C4.75775 13.9408 4.68586 13.7893 4.8637 13.7346C5.00014 13.6925 4.99894 13.6958 4.99894 13.464C4.98602 13.2102 5.0662 12.9605 5.22442 12.7616C5.32819 12.6108 5.46071 12.4819 5.61439 12.3824C5.76808 12.2829 5.93989 12.2148 6.11998 12.1818C6.41374 12.1199 6.4879 12.081 7.2733 12.1753C7.5493 12.2084 8.31322 12.363 8.6653 12.3686C9.0985 12.3756 9.47999 12.2232 9.34799 11.808C9.16727 11.2364 8.6365 10.9961 8.06578 10.6354C7.77934 10.4543 7.54282 10.2919 7.75006 9.9846C7.84819 9.84904 7.97895 9.74044 8.13022 9.66888C8.55094 9.44832 8.53294 9.47556 8.74222 9.44328C8.74222 9.43044 8.74222 9.40464 8.75506 9.39828C8.83906 9.33384 8.81206 9.25668 8.7937 9.17916C8.76293 9.00581 8.76951 8.82789 8.81303 8.65728C8.82594 8.61027 8.85353 8.56862 8.89179 8.5384C8.93004 8.50818 8.97694 8.49097 9.02566 8.48928C9.30322 8.46768 15.36 7.83264 15.6173 7.8C15.7128 7.78406 15.8107 7.79029 15.9034 7.81821C15.9961 7.84614 16.0812 7.89501 16.152 7.96104C16.7306 8.47044 17.8254 9.32124 18.3942 9.79092C18.4493 9.82633 18.4908 9.87938 18.5119 9.94141C18.533 10.0034 18.5324 10.0708 18.5102 10.1324C18.483 10.212 18.4589 10.4856 18.1171 10.5254C17.0797 10.6464 12.8285 11.0712 11.3971 11.2406C10.6441 11.3297 9.85571 10.8124 9.36755 10.2419C9.20809 10.0676 9.06966 9.87513 8.9551 9.66852C8.94226 9.62988 8.85791 9.63564 8.83919 9.61692C8.79407 9.546 8.73611 9.5718 8.67815 9.59112C8.36796 9.6659 8.08734 9.83202 7.87259 10.068C7.63427 10.3583 8.12591 10.4891 8.77463 10.9249C9.12983 11.1635 9.5173 11.591 9.50914 12.0008C9.5038 12.0922 9.47409 12.1804 9.42311 12.2564C9.37212 12.3324 9.30172 12.3933 9.21923 12.4328C8.53799 12.734 7.34399 12.2374 6.51311 12.2911C5.9971 12.3244 5.56882 12.5246 5.30182 12.9871C5.19073 13.1713 5.13689 13.3843 5.14715 13.5991C5.14715 13.6507 5.15998 13.6894 5.22442 13.7022C5.34694 13.7152 5.36746 13.8179 5.39242 13.9148C5.4265 14.0497 5.42495 14.0468 5.56043 14.0309C7.46267 13.8086 6.70042 13.8648 7.31938 13.8053C7.40902 13.8038 7.49724 13.8278 7.57373 13.8745C7.65023 13.9213 7.71185 13.9888 7.75139 14.0693C8.03603 14.691 9.07055 16.7404 9.09803 17.0782C9.11073 17.1523 9.09437 17.2285 9.05236 17.2909C9.01035 17.3533 8.9459 17.3971 8.87242 17.4132C8.62973 17.5161 8.37713 17.5938 8.11858 17.6452C8.10442 17.6485 5.59463 18.1745 5.20631 18.2122C5.09015 18.2234 4.68442 18.2444 4.5169 18.1542C4.11658 18.029 3.81646 17.3168 3.64714 16.9302C2.90554 15.2366 2.91754 15.1902 2.88682 14.8492C2.87781 14.7703 2.89858 14.6909 2.94507 14.6265C2.99155 14.5621 3.06039 14.5174 3.1381 14.5012C3.5305 14.402 3.92362 14.3185 4.31722 14.2306C4.56886 14.1742 4.76291 14.164 4.78631 14.1404ZM3.2335 15.3454C3.22173 15.3474 3.21058 15.3522 3.20091 15.3592C3.19124 15.3662 3.18331 15.3754 3.17772 15.386C3.17212 15.3965 3.16902 15.4082 3.16864 15.4202C3.16827 15.4321 3.17063 15.444 3.17554 15.4549C3.3763 15.9083 4.25158 17.7358 4.29022 17.7872C4.33822 17.8352 8.80055 16.9524 8.81327 16.9496C8.82679 16.9468 8.83949 16.9409 8.85043 16.9324C8.86137 16.9239 8.87026 16.9131 8.87645 16.9008C8.88264 16.8884 8.88596 16.8748 8.88618 16.861C8.8864 16.8471 8.8835 16.8334 8.87771 16.8209C8.66507 16.3793 7.88542 14.7139 7.8217 14.585C7.81391 14.5738 7.8032 14.5648 7.7907 14.5591C7.77821 14.5535 7.76441 14.5513 7.75078 14.5529C7.24798 14.6366 3.90358 15.223 3.2335 15.3454V15.3454ZM9.12898 9.65604C9.26248 9.9069 9.43178 10.137 9.63155 10.3391C10.2512 10.9271 10.9532 11.1359 11.1779 11.1191C11.3839 11.1034 17.5891 10.4321 18.0398 10.3782C18.1137 10.3746 18.1841 10.3458 18.2392 10.2966C18.2943 10.2473 18.3309 10.1806 18.3427 10.1076C18.353 10.0687 18.3525 10.0277 18.3411 9.98904C18.3298 9.9504 18.308 9.91562 18.2783 9.88848C17.5275 9.26748 16.7751 8.63424 16.0296 8.00712C15.9926 7.97114 15.9477 7.94426 15.8985 7.9286C15.8493 7.91294 15.7972 7.90893 15.7461 7.91688C15.2963 7.98324 9.71567 8.5776 9.07751 8.64504C8.85755 8.6682 8.91479 8.72724 8.96795 9.26352C8.97371 9.3216 9.00658 9.3408 9.06394 9.3408C9.12584 9.33989 9.18655 9.35789 9.23795 9.3924C9.28598 9.44347 9.32129 9.50513 9.34103 9.5724C9.36683 9.624 9.34103 9.6564 9.28307 9.6564C9.23189 9.66272 9.18013 9.6626 9.12898 9.65604V9.65604Z"></path><path fill="#111111" d="M17.544 5.19096C17.4861 4.99764 17.4345 4.8108 17.37 4.63044C17.3478 4.34565 17.3673 4.05913 17.428 3.78C17.524 3.732 17.6509 4.00668 17.8211 4.18584C17.956 4.32792 17.9757 4.50804 18.0273 4.67556C18.0531 4.75956 18.0787 4.8366 18.1045 4.92036C18.108 4.92076 18.1116 4.92039 18.1149 4.91927C18.1183 4.91815 18.1213 4.91631 18.1239 4.91388C18.111 4.82988 18.0594 3.999 18.0594 3.68988C18.0594 3.49788 18.2045 3.29952 18.3881 3.387C18.5641 3.471 18.5789 3.64704 18.6071 3.84444C18.7425 3.8316 18.7594 3.84444 18.7871 3.9798C18.8148 4.12021 18.8148 4.26466 18.7871 4.40508C18.7738 4.45812 18.7565 4.47996 18.7227 4.46304C18.7097 4.29504 18.6711 3.954 18.6646 3.954C18.653 3.99848 18.6444 4.04371 18.6389 4.08936C18.6583 4.39216 18.684 4.69496 18.7162 4.99776C18.7162 5.01576 18.7337 5.10828 18.7871 5.08176C18.8697 4.59906 18.9795 4.12142 19.116 3.65112C19.1484 3.525 19.2384 3.40692 19.3673 3.45132C19.4017 3.47382 19.4287 3.50606 19.4447 3.54392C19.4608 3.58178 19.4653 3.62356 19.4575 3.66396C19.4575 3.6768 19.4511 3.68328 19.4511 3.69624C19.4833 3.70833 19.5108 3.73056 19.5294 3.75959C19.548 3.78863 19.5567 3.8229 19.5541 3.85728C19.5574 4.0056 19.5574 4.14708 19.5541 4.2954C19.5529 4.31118 19.546 4.32598 19.5347 4.33703C19.5233 4.34808 19.5084 4.35461 19.4926 4.35541C19.4767 4.3562 19.4612 4.3512 19.4488 4.34135C19.4364 4.33149 19.428 4.31746 19.4253 4.30188C19.4224 4.25418 19.4159 4.20677 19.4059 4.16004C19.0674 5.85276 19.3087 5.03136 19.7152 4.17936C19.751 4.11646 19.7943 4.05808 19.8441 4.00548C19.8936 3.93171 19.9498 3.8627 20.0121 3.79932C20.0215 3.78323 20.0346 3.7696 20.0502 3.75951C20.0659 3.74942 20.0838 3.74316 20.1023 3.74124C20.1603 3.74124 20.1676 3.77988 20.1731 3.83796C20.1886 3.99876 20.2119 4.15368 20.2312 4.31472C20.2419 4.36848 20.2236 4.39164 19.8703 5.17164C19.8442 5.22948 19.8703 5.26092 19.9155 5.28768C19.9677 5.31888 20.025 5.35212 20.0765 5.3778C20.1165 5.3984 20.1484 5.43185 20.1671 5.47276C20.1858 5.51367 20.1902 5.55968 20.1796 5.6034C20.1289 5.92668 19.7043 8.26992 19.6577 8.56068C19.5441 9.26952 18.5083 9.13572 17.8085 8.98596C17.457 8.91084 17.4817 8.69796 17.3962 8.32884C17.3499 8.12928 16.8214 5.87904 16.7326 5.55828C16.6499 5.26212 17.2408 5.17464 17.544 5.19096ZM19.98 5.6742C18.9491 5.89332 17.931 5.91264 16.9259 5.55828C17.205 6.95352 17.3363 7.33344 17.6734 8.61828C17.7151 8.77776 17.8162 8.75736 17.8731 8.78628C18.6493 8.87028 18.9513 8.96628 19.297 8.8056C19.3454 8.78815 19.3883 8.75803 19.4212 8.71837C19.4541 8.67872 19.4757 8.63097 19.4838 8.58012C19.957 6.048 19.812 6.6456 19.9793 5.6742H19.98ZM17.5122 4.59816C17.5631 4.91409 17.6493 5.22331 17.7693 5.52C17.7764 5.53554 17.7875 5.54889 17.8015 5.55864C17.9175 5.57796 18.0334 5.5908 18.1559 5.60376C18.1365 5.52588 17.8375 4.57176 17.8337 4.55976C17.7757 4.41132 17.4858 4.566 17.5115 4.59816H17.5122ZM19.9284 4.41132C19.8963 4.4178 19.8639 4.44432 19.8318 4.43712C19.8059 4.43136 19.7867 4.392 19.7609 4.35984C19.5869 4.76568 19.3744 5.15184 19.2197 5.5776C19.3356 5.56464 19.4323 5.5518 19.5289 5.53896C19.5759 5.53896 19.5816 5.51064 19.9864 4.566C20.0077 4.52196 19.9636 4.4712 19.9277 4.41132H19.9284ZM18.9942 4.3212C18.904 4.7652 18.8262 5.17812 18.7365 5.60976C18.8267 5.6034 18.8847 5.59692 18.9491 5.59692C19.0559 5.59692 18.9952 5.59968 19.2712 4.392C19.1739 4.36632 19.0836 4.34688 18.9935 4.3212H18.9942ZM18.6076 5.60976C18.5669 5.04072 18.5389 4.77708 18.5236 4.5144C18.5154 4.3728 18.4978 4.3464 18.3496 4.35984C18.3104 4.36842 18.2717 4.37916 18.2337 4.392C18.2723 4.79796 18.3109 5.20392 18.3432 5.60976H18.6076ZM18.4917 4.20576C18.4659 4.00608 18.4413 3.7932 18.4014 3.58728C18.3765 3.45828 18.2467 3.52284 18.2274 3.555C18.2018 3.59062 18.1882 3.63351 18.1888 3.6774C18.1991 4.11012 18.2274 4.15092 18.2274 4.26372C18.3169 4.2438 18.3942 4.224 18.4909 4.20516L18.4917 4.20576ZM17.6991 4.31532C17.5767 4.12848 17.5767 4.12848 17.4929 4.15428C17.4543 4.4442 17.4285 4.39908 17.5122 4.39908C17.5803 4.3869 17.6443 4.3579 17.6983 4.31472L17.6991 4.31532ZM19.8898 4.25088C19.98 4.1994 19.98 4.1994 20.0698 4.32816H20.0891C20.0828 4.2444 20.0763 4.16064 20.0698 4.07688C20.0361 4.06416 20.0017 4.05343 19.9667 4.04472C19.8439 4.17936 19.8439 4.17936 19.8891 4.25028L19.8898 4.25088Z"></path><path fill="#111111" d="M1.36502 20.3581C1.30305 20.3669 1.24015 20.3669 1.17818 20.3581C1.16653 20.3554 1.15572 20.3499 1.14673 20.3421C1.13775 20.3342 1.13086 20.3242 1.1267 20.313C1.12022 20.3001 1.14602 20.2743 1.15886 20.255C1.18134 20.2322 1.20859 20.2145 1.23867 20.2034C1.26874 20.1922 1.3009 20.1879 1.33286 20.1906C2.46278 19.9787 20.8141 16.6266 22.8593 16.2281C23.0487 16.1911 23.1639 16.3747 23.014 16.4081C22.8809 16.4384 1.37702 20.3559 1.36502 20.3581Z"></path><path fill="#111111" d="M23.2781 16.9433C23.3005 16.9346 23.3253 16.9344 23.3478 16.9427C23.3703 16.951 23.3891 16.9673 23.4005 16.9884C23.3876 17.0592 23.3297 17.0724 23.2717 17.0915C15.9637 18.8421 2.19972 21.3697 1.539 21.3697C1.539 21.0941 5.89536 20.748 23.2781 16.9433Z"></path><path fill="#111111" d="M4.55438 10.1651C4.37438 10.3198 3.86558 10.2414 3.68462 10.1265C3.56052 10.0476 3.45905 9.93781 3.39015 9.80791C3.32126 9.67801 3.2873 9.53243 3.29162 9.38545C3.27302 8.76265 3.80174 8.55601 4.13558 8.83777C4.16138 8.85709 4.18718 8.88289 4.2065 8.83777C4.25777 8.7392 4.33299 8.65509 4.42525 8.59318C4.51751 8.53126 4.62385 8.49351 4.7345 8.48341C5.3837 8.37133 5.71298 8.30401 6.68678 8.48989C6.97718 8.54533 7.13078 8.79265 7.10558 9.10837C7.06464 9.56392 6.88448 9.99584 6.58958 10.3455C6.48456 10.4772 6.33235 10.5627 6.16526 10.584C5.86897 10.6296 5.56837 10.6404 5.26958 10.6162C4.90358 10.5857 4.67666 10.2699 4.55438 10.1651ZM4.29674 9.01825C4.27635 9.24996 4.31628 9.483 4.41266 9.69469C4.54015 9.95245 4.72274 10.179 4.9475 10.3584C5.02896 10.4327 5.1339 10.476 5.24402 10.4808C5.59512 10.508 5.94828 10.4885 6.29426 10.4229C6.3293 10.4126 6.36063 10.3924 6.3845 10.3648C6.7301 10.0083 7.00982 9.46405 6.99014 8.95381C6.97898 8.66485 6.67706 8.57713 6.39098 8.53501C5.75306 8.44093 4.3589 8.37769 4.29674 9.01825V9.01825ZM5.35982 8.56069C6.4109 8.45269 7.08458 8.77957 6.80954 8.90221C6.31946 9.12073 5.50154 9.24673 4.56734 9.00529C4.4705 8.98033 4.3091 8.84929 4.52222 8.72821C4.67006 8.64397 5.17934 8.57917 5.35982 8.56069V8.56069ZM4.14854 9.06973C4.15646 9.03003 4.14959 8.9888 4.12922 8.95381C4.088 8.90323 4.03406 8.86453 3.97294 8.84169C3.91182 8.81885 3.84573 8.8127 3.78144 8.82385C3.71715 8.835 3.657 8.86307 3.60714 8.90516C3.55729 8.94726 3.51954 9.00186 3.49778 9.06337C3.45656 9.15925 3.43599 9.26273 3.43738 9.36708C3.43877 9.47144 3.4621 9.57433 3.50585 9.66908C3.5496 9.76383 3.6128 9.84831 3.69133 9.91704C3.76987 9.98577 3.86198 10.0372 3.9617 10.068C4.13212 10.1358 4.32028 10.1448 4.49642 10.0937C4.46426 10.0486 4.43198 10.0097 4.40618 9.97129C4.03046 10.105 3.30434 9.40561 3.77486 9.07573C3.82766 9.03343 3.89302 9.00989 3.96067 9.00881C4.02832 9.00772 4.0944 9.02915 4.14854 9.06973V9.06973ZM4.37402 9.92665C4.24179 9.71572 4.16837 9.47327 4.16138 9.22441C4.15102 9.19863 4.135 9.1755 4.11451 9.15673C4.09402 9.13796 4.06957 9.12403 4.04298 9.11597C4.01639 9.10791 3.98832 9.10592 3.96086 9.11015C3.93339 9.11438 3.90723 9.12472 3.8843 9.14041C3.52802 9.33817 3.97022 9.92665 4.37402 9.92665V9.92665ZM5.2889 8.76697C5.1089 8.67673 4.78634 8.70889 4.68326 8.87005C4.88942 8.83201 5.07602 8.79913 5.2889 8.76697Z"></path><path fill="#111111" d="M8.69739 8.3868C8.72319 8.6574 8.58231 8.42532 8.57499 8.38032C8.53479 8.13468 7.77411 4.16676 7.74375 3.95388C7.71451 3.81799 7.72791 3.67639 7.78212 3.54839C7.83632 3.4204 7.92869 3.31224 8.04663 3.23868C8.11494 3.20365 8.18923 3.18179 8.26563 3.17424C8.43279 3.14628 13.8327 2.64204 14.0645 2.63304C14.7876 2.60496 14.7205 2.70096 15.7719 7.60716C15.7719 7.74252 15.6702 7.69704 15.6559 7.63932C15.6383 7.56804 15.6091 7.49808 15.5915 7.4268C14.6572 3.6492 14.6694 3.16608 14.5864 3.0132C14.5538 2.93751 14.4985 2.87386 14.428 2.83112C14.3576 2.78838 14.2756 2.76868 14.1934 2.77476C14.0001 2.78796 8.24583 3.31476 8.14971 3.37404C7.92483 3.51168 7.92171 3.70836 7.89195 3.88944C7.89843 3.89592 8.63295 8.01312 8.69739 8.3868Z"></path><path fill="#111111" d="M4.09692 13.3028C3.94932 13.3318 3.40092 13.45 3.27228 13.4768C3.07176 13.5187 2.58516 13.5902 1.75164 13.7732C1.71909 13.783 1.6849 13.7861 1.65113 13.7822C1.61736 13.7784 1.58473 13.7677 1.55521 13.7509C1.52568 13.7341 1.49989 13.7114 1.47938 13.6843C1.45888 13.6572 1.44409 13.6262 1.43592 13.5932C0.558482 11.5091 0.588002 11.5711 0.604802 11.4536C0.604802 11.4138 0.570602 11.4319 2.9436 10.9769C3.1116 10.9448 3.279 10.914 3.44616 10.8738C3.52368 10.8552 3.5622 10.8996 3.59436 10.9578C4.39356 12.3964 4.06644 11.8698 4.66392 12.8392C4.71552 12.9232 4.75524 13.006 4.80564 13.0841C4.83864 13.1351 4.812 13.1737 4.76064 13.1872C4.716 13.1986 4.284 13.2662 4.09692 13.3028ZM4.67688 13.058C4.66956 13.046 4.01688 11.871 3.55572 11.08C3.54513 11.0529 3.52438 11.0311 3.49789 11.0191C3.47141 11.0072 3.4413 11.006 3.414 11.016C2.5566 11.1758 1.81884 11.31 0.707882 11.525C1.05204 12.3424 0.767882 11.7341 1.63572 13.5997C1.64856 13.632 1.6614 13.6577 1.70652 13.6448C2.0352 13.5804 2.36388 13.5299 2.69232 13.4648C3.23388 13.356 4.55436 13.0902 4.67688 13.058Z"></path><path fill="#111111" d="M0.984983 7.79999C0.846383 7.82771 0.780263 7.64171 0.920543 7.60667C1.10054 7.58507 7.78622 6.99947 8.0015 6.98171C8.09162 6.97427 8.1239 6.98807 8.13038 7.05251C8.13686 7.11695 8.11742 7.14923 8.04638 7.14923C7.80506 7.14971 1.02302 7.79999 0.984983 7.79999Z"></path><path fill="#111111" d="M21.0617 11.183C20.6948 11.0831 20.9005 11.1822 19.9535 10.8287C19.7038 10.7236 19.4696 10.5849 19.2575 10.4164C19.2127 10.3855 19.1624 10.3636 19.1093 10.3519C19.0701 10.3465 19.0332 10.3305 19.0026 10.3056C18.9719 10.2807 18.9487 10.2478 18.9354 10.2106C18.9221 10.1734 18.9193 10.1333 18.9272 10.0945C18.9351 10.0558 18.9535 10.0201 18.9804 9.99108C19.1298 9.81344 19.3231 9.67796 19.541 9.59808C19.916 9.44004 20.2884 9.49512 20.6556 9.62388C21.2039 9.81588 21.8821 10.0156 22.0476 10.5517C22.0733 10.6502 22.0673 10.7543 22.0302 10.8492C21.9932 10.944 21.9271 11.0247 21.8414 11.0797C21.3847 11.3314 21.2623 11.2378 21.0617 11.183ZM19.4251 10.4422C19.8292 10.6946 20.2707 10.8816 20.7331 10.9962C20.6579 10.9211 20.8178 11.0161 19.4702 10.4292C19.4177 10.3943 19.3936 10.4263 19.4251 10.4422V10.4422ZM19.8374 9.60456C19.5786 9.66456 19.2134 9.82585 19.0643 10.0427C18.9983 10.1387 19.0254 10.2047 19.1417 10.236C19.7421 10.3915 20.317 10.6323 20.849 10.9511C21.1447 11.1002 21.3784 11.2264 21.764 10.9061C21.944 10.7568 21.951 10.6289 21.8284 10.4292C21.7298 10.2612 21.5812 10.1283 21.4032 10.0492C21.1006 9.9198 20.7912 9.80424 20.4754 9.69468C20.2702 9.62516 20.0538 9.59459 19.8374 9.60456V9.60456Z"></path><path fill="#111111" d="M18.8002 12.7746C18.813 12.5297 18.9991 12.4343 19.2125 12.5555C19.2245 12.5626 20.8708 13.47 22.1571 14.2115C22.2711 14.3365 22.3725 14.4725 22.4598 14.6174C22.4895 14.6623 22.4749 14.7134 22.4019 14.7134C21.8307 14.65 22.3374 14.8512 18.9677 12.9614C18.9097 12.9098 18.826 12.8584 18.8002 12.7746ZM22.0733 14.2758L19.644 12.897C19.6245 12.8805 19.6017 12.8685 19.5771 12.8617C19.5525 12.855 19.5267 12.8537 19.5015 12.858C19.4763 12.8623 19.4524 12.8721 19.4314 12.8866C19.4104 12.9011 19.3929 12.9201 19.38 12.9421C19.3272 13.0055 19.3288 13.0381 19.3993 13.0774C20.5108 13.6931 21.8962 14.5013 21.9251 14.5013C21.9702 14.4305 22.0153 14.3531 22.0733 14.2758V14.2758ZM22.2795 14.4948L22.1829 14.3402C22.0603 14.3917 22.0089 14.4562 22.0149 14.5592C22.1055 14.5464 22.2085 14.6108 22.2795 14.4948ZM18.9675 12.8326C19.0189 12.7552 19.0641 12.6844 19.1157 12.607C19.1001 12.5984 19.083 12.5931 19.0654 12.5914C19.0477 12.5896 19.0299 12.5916 19.0131 12.597C18.9962 12.6024 18.9806 12.6113 18.9673 12.623C18.954 12.6347 18.9432 12.649 18.9357 12.665C18.8904 12.7423 18.9097 12.8068 18.9677 12.8326H18.9675ZM19.2123 12.9871C19.2767 12.9031 19.3347 12.8389 19.3923 12.7681C19.3468 12.7651 19.3017 12.7783 19.2651 12.8055C19.2285 12.8326 19.2027 12.8719 19.1925 12.9163C19.1932 12.936 19.212 12.9678 19.212 12.9871H19.2123ZM19.0834 12.9227C19.1415 12.8267 19.1865 12.7547 19.2252 12.6779C19.1285 12.6972 19.0641 12.7488 19.0572 12.8326C19.0608 12.8639 19.0697 12.8944 19.0836 12.9227H19.0834Z"></path><path fill="#111111" d="M6.86749 10.2617C7.25893 10.3298 7.14745 11.1438 5.77861 11.2282C5.24737 11.2609 4.08229 11.0525 4.28377 10.6355C4.30065 10.5861 4.3316 10.5428 4.37282 10.5108C4.41404 10.4788 4.46372 10.4596 4.51573 10.4555C4.50593 10.475 4.49011 10.4908 4.47061 10.5006C4.43785 10.5179 4.41064 10.5441 4.39209 10.5761C4.37355 10.6082 4.36443 10.6448 4.36578 10.6819C4.36714 10.7189 4.37891 10.7548 4.39974 10.7854C4.42058 10.816 4.44964 10.8401 4.48357 10.855C5.06365 11.2075 6.25585 11.2457 6.85465 10.759C6.88743 10.7347 6.9149 10.7041 6.93538 10.6688C6.95586 10.6336 6.96892 10.5946 6.97374 10.5541C6.97856 10.5136 6.97505 10.4726 6.96342 10.4335C6.9518 10.3945 6.9323 10.3582 6.90613 10.327C6.88681 10.3133 6.88033 10.2875 6.86749 10.2617Z"></path><path fill="#111111" d="M20.3723 5.97708C20.2787 5.97708 20.2608 5.89788 20.3272 5.8482C20.4365 5.73036 21.8357 5.64204 21.8478 5.64204C21.8803 5.63948 21.9124 5.64992 21.9372 5.67106C21.9619 5.69221 21.9773 5.72232 21.9799 5.75478C21.9824 5.78725 21.972 5.8194 21.9508 5.84416C21.9297 5.86893 21.8996 5.88428 21.8671 5.88684C21.371 5.94548 20.8719 5.97561 20.3723 5.97708V5.97708Z"></path><path fill="#111111" d="M16.0876 6.19607C16.5916 6.13859 16.6749 6.12995 16.7448 6.17027C16.7581 6.17636 16.7692 6.18627 16.7767 6.19872C16.7843 6.21117 16.7879 6.22559 16.7872 6.24013C16.7865 6.25468 16.7815 6.26868 16.7728 6.28035C16.7641 6.29202 16.7521 6.30082 16.7384 6.30563C16.6485 6.33831 16.5557 6.36206 16.4613 6.37655C16.236 6.40439 16.0038 6.42167 15.7719 6.43451C15.6753 6.44735 15.5008 6.26303 16.0876 6.19607Z"></path><path fill="#111111" d="M18.0334 12.0916C17.9884 12.0336 17.9374 11.9627 17.8402 12.0013C17.8208 12.0078 17.6256 12.0219 17.5762 11.9369C17.4834 11.7785 17.1287 11.6849 16.9898 11.6729C15.6727 11.5318 15.0779 11.8003 14.4256 12.169C14.2999 12.2229 14.3911 12.1955 13.9873 12.0531C13.2088 11.7611 11.8926 11.8265 10.6369 12.6265C10.4747 12.7265 10.3362 12.8606 10.2311 13.0195C10.1497 13.1413 10.0882 13.1202 9.90889 13.1995C9.8896 13.2039 9.8717 13.213 9.85678 13.226C9.84186 13.239 9.83038 13.2555 9.82336 13.2739C9.81634 13.2924 9.814 13.3124 9.81655 13.332C9.8191 13.3516 9.82646 13.3703 9.83797 13.3864C9.94105 13.5604 11.8096 16.6918 11.9771 16.9817C12.0287 17.0719 12.0673 17.0913 12.1639 17.0719C12.5184 16.9945 15.5041 16.4148 16.1652 16.273C16.2701 16.2446 16.3789 16.2337 16.4873 16.2407C16.7115 16.2676 16.9375 16.2075 17.1187 16.0727C17.1696 16.0354 17.2299 16.0131 17.2927 16.0083C17.5955 15.9696 19.9151 15.6281 20.1534 15.5959C20.8607 15.5221 21.1045 16.0757 18.0334 12.0916ZM12.3248 16.7693C12.2768 16.7213 10.2517 13.3793 10.2437 13.3673C10.3 13.311 10.1237 13.0733 12.2926 16.6534C12.3618 16.7687 12.3624 16.7317 12.3248 16.7693ZM13.3428 16.4471C14.1383 16.0951 14.993 15.8962 15.8621 15.8608L13.3428 16.4471ZM13.6006 16.2151C14.1611 15.9317 14.7474 15.7513 15.3467 15.777C14.7503 15.8583 14.1647 16.0052 13.6006 16.2151V16.2151ZM12.4859 16.7049C11.7513 15.5065 11.0168 14.3102 10.2823 13.116C11.3818 12.18 12.8496 11.8237 14.0903 12.2656C14.2435 12.3186 14.3733 12.4234 14.4575 12.562C15.519 14.1889 16.4608 15.5871 16.5901 15.8028C15.0503 15.3261 13.7101 15.7449 12.4859 16.7049V16.7049ZM16.7448 15.777C15.991 14.643 15.2306 13.4962 14.464 12.3493C15.1862 11.7515 16.704 11.6842 17.46 11.9627C17.5172 11.9771 19.877 15.0568 19.9277 15.1327C19.3836 15.0162 18.8192 15.0361 18.2846 15.1907C17.7468 15.3141 17.2286 15.5114 16.7448 15.777V15.777ZM19.438 15.223C18.994 15.2874 18.5231 15.3454 18.0592 15.4098C18.6778 15.2423 19.2576 15.1714 19.438 15.223V15.223ZM17.4407 15.6997C17.4355 15.6922 17.4332 15.683 17.4342 15.6739C17.5824 15.6353 17.7371 15.5899 17.8981 15.5644C18.2228 15.5151 19.504 15.3219 19.8374 15.3067C19.8811 15.3073 19.9245 15.3138 19.9663 15.3261C19.116 15.4549 18.2783 15.5773 17.4407 15.6997Z"></path><path fill="#111111" d="M18.9677 12.8326C18.8357 12.7738 18.9465 12.5255 19.1094 12.607C19.0643 12.684 19.0128 12.7552 18.9677 12.8326Z"></path><path fill="#111111" d="M7.62778 16.9626C7.61482 17.0334 7.57606 17.067 7.51174 17.0592C7.20802 17.0224 7.6051 17.1972 6.30694 16.4278C5.96842 16.2271 4.58014 15.4789 4.58014 15.223C4.6117 15.1914 4.97446 15.247 5.03122 15.2809C7.90282 17.0154 7.42162 16.705 7.62778 16.9626ZM6.28114 16.3054C6.31366 16.3379 6.9127 16.6945 7.34422 16.9496C7.38898 16.9762 7.40866 16.9561 7.43446 16.924C7.46026 16.8852 7.43446 16.8661 7.4023 16.8466C7.2811 16.773 6.5581 16.3306 6.32626 16.1958C6.31348 16.2332 6.29841 16.2698 6.28114 16.3054V16.3054Z"></path><path fill="#111111" d="M15.7525 8.16132C15.8704 8.17944 15.7885 8.133 17.5631 9.66252C17.63 9.70716 17.581 9.75276 17.5373 9.75276C17.2925 9.77844 11.4614 10.4426 11.1973 10.4808C11.156 10.4876 11.1137 10.4827 11.075 10.4668C11.0363 10.4508 11.0028 10.4244 10.9782 10.3906C9.7182 8.8626 9.67788 8.86656 9.696 8.81196C9.74676 8.71044 15.7384 8.15904 15.7525 8.16132ZM10.8816 9.26952C10.8042 9.28236 10.7462 9.2952 10.6818 9.30168C10.6238 9.31464 10.6753 9.33396 10.7141 9.33396C10.9434 9.27024 11.0416 9.4212 11.3068 9.75276C11.2166 9.7656 11.1457 9.77208 11.0748 9.78492C11.0104 9.81072 11.0684 9.80424 11.0748 9.81072C11.1369 9.81757 11.1995 9.81757 11.2616 9.81072C11.2938 9.80319 11.3274 9.80528 11.3583 9.81674C11.3893 9.8282 11.4162 9.84852 11.4356 9.87516C11.497 9.93648 11.5615 9.99452 11.629 10.049C11.6483 10.062 11.6676 10.0748 11.6483 10.0297C11.5838 9.95892 11.5259 9.888 11.455 9.8172C11.4536 9.81563 11.4527 9.81374 11.4523 9.81172C11.452 9.8097 11.4521 9.80762 11.4527 9.80566C11.4534 9.80371 11.4545 9.80196 11.4561 9.80058C11.4576 9.79919 11.4594 9.79822 11.4614 9.79776C11.5645 9.78492 12.0026 9.72696 12.2281 9.70764C12.2607 9.71202 12.2905 9.72805 12.3121 9.75276C12.4781 9.91872 12.7024 10.1788 12.6343 10.0427C12.5441 9.93312 12.4543 9.8172 12.3572 9.70764C12.383 9.69468 12.5638 9.678 13.0596 9.62364C13.2852 9.59964 13.3574 9.57072 13.4268 9.64944C13.4988 9.73176 13.575 9.81048 13.6459 9.89424C13.6781 9.94572 13.7039 9.92004 13.6652 9.87492C13.6008 9.7782 13.5299 9.68808 13.4591 9.585C13.736 9.55272 14.0068 9.52056 14.2837 9.48828C14.3797 9.48828 14.4916 9.69984 14.6188 9.78468L14.6381 9.76536C14.5673 9.67512 14.5028 9.58536 14.4319 9.49476C14.4138 9.45876 14.4091 9.48132 15.1858 9.37872C15.2761 9.36672 15.334 9.35304 15.3984 9.44316C15.5144 9.64944 15.5664 9.6816 15.5208 9.56568C15.5015 9.5334 15.4564 9.44316 15.4307 9.39168C15.4288 9.38835 15.4279 9.38459 15.4279 9.38078C15.428 9.37697 15.4291 9.37324 15.431 9.36997C15.433 9.36669 15.4358 9.364 15.4391 9.36214C15.4424 9.36029 15.4462 9.35934 15.45 9.3594C15.5531 9.34656 15.811 9.29616 16.0427 9.26928C16.2554 9.24456 16.3204 9.20436 16.397 9.2886C16.4555 9.35268 16.5196 9.411 16.584 9.47544C16.629 9.52692 16.6483 9.51408 16.6097 9.45612L16.4297 9.237C16.4266 9.23461 16.4243 9.23127 16.4233 9.2275C16.4223 9.22372 16.4225 9.21971 16.424 9.21607C16.4254 9.21244 16.428 9.20937 16.4314 9.20735C16.4347 9.20532 16.4386 9.20444 16.4425 9.20484L16.6616 9.14688C16.7131 9.13392 16.6874 9.12108 16.6552 9.12108C16.3538 9.14844 16.3778 9.20292 16.217 9.01152C16.1465 8.92752 15.8948 8.71512 15.8562 8.67648C15.877 8.66442 15.8985 8.65364 15.9206 8.6442C15.9658 8.63136 15.9658 8.61204 15.9013 8.62488C15.8649 8.63262 15.8271 8.63043 15.7918 8.61852C15.7789 8.61204 15.6823 8.49612 15.65 8.45736C15.6114 8.4252 15.6114 8.44452 15.6307 8.47032L15.7147 8.60556C15.7166 8.60889 15.7175 8.61266 15.7175 8.61647C15.7174 8.62028 15.7163 8.62401 15.7144 8.62728C15.7124 8.63055 15.7096 8.63325 15.7063 8.6351C15.703 8.63696 15.6992 8.6379 15.6954 8.63784C15.4248 8.67 15.1606 8.70228 14.8964 8.72796C14.8104 8.72796 14.7764 8.66976 14.6838 8.59272C14.658 8.5476 14.6387 8.56692 14.671 8.60556C14.7031 8.65068 14.7289 8.6958 14.7612 8.74092C14.774 8.76672 14.7676 8.77308 14.7547 8.77308C14.6323 8.79888 14.3874 8.80476 14.2387 8.82468C13.8649 8.87484 13.8448 8.88348 13.6975 8.70864C13.6641 8.67114 13.6274 8.63665 13.588 8.60556C13.5686 8.57988 13.5558 8.5992 13.5686 8.62488C13.6267 8.6958 13.6975 8.78604 13.762 8.86332C13.7633 8.86489 13.7641 8.86677 13.7645 8.86878C13.7649 8.87078 13.7647 8.87285 13.7641 8.87478C13.7634 8.87672 13.7623 8.87845 13.7608 8.87983C13.7593 8.8812 13.7575 8.88217 13.7555 8.88264C13.6589 8.88912 13.2595 8.90868 13.0854 8.9406C12.9438 8.96664 12.9174 8.95992 12.8084 8.83116C12.7798 8.78964 12.7474 8.7508 12.7117 8.71512C12.6666 8.65716 12.6796 8.70228 12.6924 8.73444C12.7375 8.79888 12.7826 8.8698 12.8278 8.9406C12.8291 8.94356 12.8298 8.94676 12.8299 8.95002C12.83 8.95327 12.8294 8.9565 12.8282 8.95952C12.827 8.96254 12.8252 8.96528 12.8229 8.96758C12.8206 8.96988 12.8178 8.97168 12.8148 8.97288C12.5184 9.018 12.2298 9.06408 11.9388 9.10812C11.8324 9.12432 11.8693 9.08412 11.7004 8.91492L11.681 8.93424C11.7198 8.99868 11.765 9.05664 11.8164 9.12744C11.5651 9.17256 11.3202 9.20436 11.0754 9.25632C11.0394 9.26686 11.0007 9.2642 10.9665 9.2488C10.9322 9.2334 10.9046 9.20628 10.8886 9.17232C10.7275 8.97264 10.7017 8.98548 10.7275 9.01776C10.7704 9.10657 10.822 9.19091 10.8816 9.26952Z"></path><path fill="#111111" d="M10.9589 10.8803C10.9469 10.8683 10.8442 10.7897 10.9717 10.7579C11.2357 10.7256 17.8337 9.97177 18.1171 9.93961C18.1727 9.93961 18.2115 10.0079 18.1236 10.0297C17.4445 10.1174 11.0953 10.8529 10.9589 10.8803Z"></path><path fill="#111111" d="M9.06456 8.78628C10.8275 10.7663 10.8691 10.7105 10.7914 10.7772C10.7462 10.8158 10.7144 10.7704 10.6883 10.7386C10.3514 10.3282 8.96796 8.838 8.96796 8.81196C8.96796 8.79264 8.96748 8.67708 9.06456 8.78628Z"></path><path fill="#111111" d="M11.848 13.2449C11.7733 13.2831 11.7013 13.3261 11.68 13.2707C11.6543 13.1678 12.1979 12.9313 12.2534 12.9098C12.7594 12.7114 13.3024 12.6257 13.8449 12.6585C13.9384 12.6688 14.031 12.686 14.122 12.7101C14.4 12.8487 13.0723 12.6175 11.848 13.2449Z"></path><path fill="#111111" d="M14.1741 13.1418C14.3286 13.2062 14.1804 13.2258 14.1546 13.2258C13.8415 13.2276 13.5298 13.2687 13.2269 13.3482C13.2076 13.3547 13.0529 13.3354 13.2011 13.2642C13.776 13.08 13.903 13.0793 14.1741 13.1418Z"></path><path fill="#111111" d="M16.8092 14.4884C16.732 14.366 16.6546 14.25 16.5773 14.1341C16.566 14.1267 16.5533 14.1217 16.54 14.1195C16.5267 14.1173 16.5131 14.1178 16.5 14.1211C16.4351 14.139 16.3646 14.1597 16.2937 14.1727C16.3325 14.0825 16.4226 14.0631 16.5 14.0115C16.4419 13.9149 16.3904 13.8183 16.332 13.7153C16.0997 13.7993 16.1136 13.7949 16.0484 13.7732C16.0876 13.7145 16.0188 13.7372 16.2869 13.625C16.2095 13.4897 16.1387 13.361 16.0613 13.2255C16.0098 13.2449 15.9582 13.2642 15.9002 13.2835C15.9002 13.1934 15.9775 13.1875 16.0163 13.1483C15.9582 13.0259 15.9002 12.9033 15.8423 12.7745C15.8488 12.7681 15.8454 12.6691 15.9454 12.8067C16.1134 13.0379 16.1287 13.1031 16.1773 13.1031C16.39 13.058 16.5961 13.0064 16.8088 12.9549C16.5896 12.5555 16.5575 12.4201 16.886 12.8905C16.8935 12.9123 16.909 12.9305 16.9293 12.9412C16.9497 12.952 16.9734 12.9546 16.9956 12.9485C17.15 12.9335 17.3048 12.9291 17.4724 12.9227C17.4509 12.8838 17.4336 12.8428 17.4209 12.8003C17.2529 12.2784 17.511 12.7616 17.511 12.7681C17.6296 13.1238 17.9167 12.8238 18.039 13.0515C17.9359 13.0452 17.8264 13.0387 17.6975 13.0322C17.7684 13.1418 17.8264 13.2384 17.8908 13.3351C17.9059 13.3652 18.2218 13.3374 18.3161 13.4311C18.2065 13.4891 18.097 13.4311 17.9746 13.4697C18.0262 13.5537 18.0776 13.6377 18.1357 13.721C18.1421 13.734 18.1744 13.734 18.2 13.734C18.2968 13.7403 18.387 13.7403 18.4836 13.7468C18.5103 13.7525 18.5362 13.7611 18.5609 13.7726C18.5609 13.8194 18.599 13.7825 18.2129 13.8434C18.2708 13.9401 18.3224 14.0367 18.3869 14.127C18.4204 14.1606 18.5309 14.1373 18.7927 14.1528C18.818 14.1528 18.9367 14.195 18.9023 14.2301C18.7606 14.2429 18.6187 14.2559 18.4703 14.2687C18.4814 14.3171 18.4964 14.3645 18.5153 14.4104C18.6833 14.8743 18.6764 14.8937 18.4313 14.4685C18.3833 14.4043 18.3413 14.2945 18.2767 14.2945C18.1087 14.3203 17.948 14.3461 17.7742 14.3718C17.8193 14.4813 17.903 14.7005 17.9287 14.7842C17.9868 14.9388 17.8901 14.7971 17.8837 14.7906C17.7203 14.5592 17.6726 14.4169 17.6002 14.4169C17.4068 14.4555 17.22 14.5009 17.0267 14.5393C17.0848 14.6424 17.1362 14.7391 17.1878 14.8357C17.233 14.9066 17.1814 14.8937 17.1556 14.855C17.1169 14.8099 17.0716 14.771 17.0332 14.7261C16.9883 14.6744 16.9492 14.5909 16.8979 14.5779C16.8299 14.5554 16.756 14.6196 16.5371 14.6682C16.5773 14.5722 16.6997 14.5529 16.8092 14.4884ZM16.4033 13.5799C16.6094 13.5284 16.8092 13.4703 17.0089 13.4189C16.9574 13.3028 16.8995 13.1934 16.8409 13.0645C16.6283 13.1031 16.4089 13.1485 16.1773 13.1934C16.2616 13.3286 16.332 13.4575 16.4033 13.5799ZM16.6739 14.0631C16.7579 14.192 16.835 14.3144 16.9123 14.4305C16.9175 14.4371 16.9247 14.4419 16.9328 14.4442C16.9409 14.4465 16.9495 14.4462 16.9574 14.4433C17.1443 14.3917 17.3376 14.3402 17.5308 14.2823C17.4665 14.1727 17.402 14.0696 17.3376 13.9665C17.3329 13.9591 17.3261 13.9533 17.3181 13.9499C17.31 13.9464 17.3011 13.9455 17.2925 13.9472C17.0927 13.9859 16.893 14.0245 16.6739 14.0631V14.0631ZM17.2538 13.8377C17.2022 13.7474 17.1443 13.6577 17.0927 13.5671C17.0696 13.5209 16.9769 13.5722 16.4549 13.6701C16.5128 13.7732 16.558 13.8501 16.6094 13.9341C16.6224 13.9471 16.6482 13.9664 16.6675 13.9599C16.8607 13.9214 17.054 13.8828 17.2538 13.8377V13.8377ZM17.4535 13.9149C17.6183 14.1846 17.6521 14.2629 17.692 14.2629C17.86 14.2371 18.027 14.2049 18.2009 14.1727C18.1429 14.076 18.0914 13.9859 18.0329 13.8956C18.0148 13.8584 17.9669 13.8619 17.4535 13.9149V13.9149ZM16.9574 13.0515C17.1484 13.4016 17.091 13.4043 17.3183 13.3802C17.4407 13.3671 17.5631 13.3544 17.692 13.3415C17.6404 13.2449 17.5903 13.1537 17.5373 13.0709C17.531 13.0606 17.5226 13.0518 17.5126 13.0452C17.5025 13.0385 17.4912 13.0341 17.4793 13.0322C17.3117 13.0355 17.1443 13.0452 16.9574 13.0515V13.0515ZM17.2087 13.5155C17.2667 13.6185 17.3183 13.7023 17.3767 13.7861C17.3828 13.7939 17.3906 13.8003 17.3995 13.8048C17.4084 13.8093 17.4182 13.8117 17.4282 13.8119C17.6022 13.7925 17.7697 13.7667 17.9501 13.7474C17.7175 13.3993 17.9005 13.466 17.2087 13.5155V13.5155Z"></path><path fill="#111111" d="M15.6752 12.4459C15.6559 12.388 15.701 12.3557 15.7462 12.3428C16.401 12.1016 17.0713 12.1475 17.1958 12.2719C17.2518 12.328 17.19 12.3618 17.1508 12.3493C16.6826 12.2003 16.1406 12.3296 15.6752 12.4459Z"></path><path fill="#111111" d="M2.58277 11.2604C2.78803 11.2623 2.98814 11.3249 3.15793 11.4402C3.32772 11.5556 3.45961 11.7186 3.53701 11.9087C3.6144 12.0988 3.63384 12.3075 3.59288 12.5087C3.55192 12.7098 3.45239 12.8944 3.30681 13.0391C3.16124 13.1838 2.97612 13.2822 2.77474 13.322C2.57336 13.3617 2.36472 13.341 2.17507 13.2625C1.98542 13.184 1.82323 13.0511 1.70889 12.8807C1.59456 12.7102 1.5332 12.5097 1.53253 12.3044C1.5339 12.0269 1.64518 11.7612 1.84202 11.5655C2.03887 11.3698 2.30522 11.2601 2.58277 11.2604V11.2604ZM2.42821 12.1432C2.42821 12.1367 2.21557 11.7179 2.10601 11.4924C2.00293 11.589 1.91269 11.6724 1.80961 11.763C2.02225 11.8982 2.42173 12.1432 2.42821 12.1432ZM1.77097 12.768C1.87405 12.8776 1.96429 12.9677 2.06089 13.0708C2.19625 12.8518 2.45401 12.433 2.45401 12.4265C2.43601 12.4451 1.99825 12.6545 1.77097 12.768ZM1.72585 12.684C1.96429 12.5616 2.39593 12.336 2.39593 12.3296C2.15113 12.3167 1.90633 12.3103 1.64209 12.2974C1.66801 12.4331 1.69369 12.549 1.72585 12.684ZM3.40105 12.7548C3.43981 12.626 3.47845 12.51 3.51709 12.3876C3.25309 12.3748 2.76325 12.3553 2.75677 12.3618C2.96941 12.491 3.17557 12.6199 3.40105 12.7552V12.7548ZM2.67949 11.376C2.66653 11.64 2.64721 12.1298 2.65369 12.1298C2.78257 11.9237 2.91145 11.7175 3.05317 11.492C2.92429 11.4538 2.80801 11.415 2.67949 11.376ZM2.53129 12.1105C2.53777 12.1105 2.56345 11.6273 2.57641 11.3696C2.44753 11.3953 2.32513 11.4276 2.19625 11.4536C2.31217 11.6856 2.42173 11.8982 2.53129 12.1109V12.1105ZM3.34309 12.845C3.13045 12.7098 2.72461 12.4649 2.71813 12.4714C2.82769 12.6775 2.93713 12.8837 3.04669 13.1028C3.14977 13.02 3.24001 12.936 3.34309 12.8454V12.845ZM2.35729 12.2459C2.35729 12.2394 1.97077 11.9819 1.75813 11.8464C1.71949 11.9688 1.68073 12.0847 1.64209 12.2072C1.89985 12.2204 2.13181 12.2333 2.35729 12.2462V12.2459ZM3.44617 11.9365C3.22069 12.0461 3.00805 12.1492 2.80189 12.2522C2.80189 12.2587 3.27229 12.2845 3.52357 12.2974C3.49777 12.1688 3.47197 12.0529 3.44617 11.9369V11.9365ZM2.95657 13.1479C2.84053 12.9288 2.62153 12.5228 2.62153 12.5228C2.61505 12.7484 2.60209 12.9804 2.59573 13.2252C2.71813 13.2 2.82769 13.174 2.95657 13.1483V13.1479ZM3.14401 11.5568C3.01513 11.763 2.89273 11.9498 2.76385 12.1367C2.77021 12.1432 3.17617 11.9369 3.39529 11.8274C3.30445 11.7372 3.22717 11.647 3.14401 11.5568ZM2.48029 13.2191C2.49961 12.9808 2.51893 12.5297 2.51257 12.5297C2.39017 12.7165 2.27413 12.9098 2.13889 13.116C2.26069 13.1546 2.36401 13.1869 2.47969 13.2191H2.48029Z"></path><path fill="#111111" d="M19.6055 9.77843C19.7022 9.77843 19.7924 9.77207 19.8825 9.77843C19.9341 9.78491 20.0625 9.93311 20.1017 9.96527C20.0177 9.95243 19.8311 9.92027 19.8181 9.91379C19.7537 9.87515 19.6892 9.83003 19.6055 9.77843Z"></path><path fill="#111111" d="M13.3235 9.52079C13.2076 9.53363 13.111 9.54731 13.0142 9.55943C12.7954 9.58691 12.5761 9.60455 12.357 9.63023C12.3312 9.63023 12.2926 9.63023 12.2797 9.61091C12.1637 9.47567 12.0478 9.33395 11.9189 9.17891C12.0542 9.15959 12.6412 9.07955 12.8081 9.05003C12.8376 9.04211 12.8689 9.04342 12.8977 9.05378C12.9265 9.06414 12.9514 9.08306 12.9691 9.10799C13.0714 9.23795 13.1946 9.37259 13.3235 9.52079Z"></path><path fill="#111111" d="M16.2165 9.14063C16.2196 9.14302 16.2218 9.14635 16.2228 9.15013C16.2239 9.15391 16.2236 9.15792 16.2222 9.16156C16.2207 9.16519 16.2181 9.16826 16.2148 9.17028C16.2114 9.17231 16.2075 9.17319 16.2036 9.17279C16.1161 9.18311 15.7537 9.23951 15.3789 9.26951C15.2729 9.26951 15.3479 9.27839 14.9279 8.83751C14.9248 8.83512 14.9226 8.83178 14.9215 8.828C14.9205 8.82422 14.9207 8.82021 14.9222 8.81658C14.9236 8.81294 14.9262 8.80988 14.9296 8.80785C14.9329 8.80582 14.9369 8.80494 14.9407 8.80535C15.7567 8.69279 15.7567 8.66819 15.7848 8.69579C15.933 8.84399 16.0731 8.99399 16.2165 9.14063Z"></path><path fill="#111111" d="M13.9163 8.92152C14.2137 8.88432 14.5976 8.84856 14.7474 8.82492C14.777 8.81926 14.8075 8.82166 14.8358 8.83186C14.8642 8.84205 14.8892 8.85968 14.9084 8.88288C15.0206 9.01608 15.1404 9.14688 15.2629 9.28884C15.0793 9.315 15.1063 9.30636 14.393 9.39192C14.366 9.39241 14.3393 9.38574 14.3157 9.3726C14.1804 9.23724 14.0517 9.09552 13.9163 8.9538V8.92152Z"></path><path fill="#111111" d="M14.2578 9.41123C14.0387 9.43703 13.8258 9.44963 13.6134 9.49523C13.5395 9.51532 13.4609 9.50962 13.3907 9.47909C13.3204 9.44855 13.2627 9.39499 13.2269 9.32723C13.1564 9.23325 13.0811 9.14294 13.0013 9.05663C12.9989 9.05343 12.9973 9.04968 12.9967 9.04572C12.996 9.04176 12.9963 9.0377 12.9976 9.0339C12.9989 9.0301 13.0011 9.02666 13.004 9.02389C13.0069 9.02112 13.0104 9.01909 13.0143 9.01799C13.7998 8.93399 13.6874 8.94143 13.7746 8.93399C13.8132 8.93399 13.8327 8.95955 13.8586 8.98547C14.0013 9.11803 14.1347 9.26029 14.2578 9.41123Z"></path><path fill="#111111" d="M11.0298 9.31463C11.2488 9.28235 11.3716 9.25931 11.6355 9.22439C11.7903 9.20387 11.8542 9.14351 11.9317 9.27587C12.0574 9.49043 12.1254 9.49871 12.2218 9.64319C11.8476 9.68471 11.6753 9.71363 11.4486 9.73343C11.3502 9.73343 11.3406 9.69287 11.0233 9.34031C11.0208 9.33879 11.0188 9.33649 11.0176 9.33373C11.0165 9.33098 11.0162 9.32793 11.017 9.32504C11.0177 9.32215 11.0193 9.31957 11.0217 9.31769C11.024 9.31582 11.0268 9.31474 11.0298 9.31463V9.31463Z"></path></g></svg>